<svg xmlns="http://www.w3.org/2000/svg" xmlns:xlink="http://www.w3.org/1999/xlink" version="1.1" width="256" height="256" viewBox="0 0 256 256" xml:space="preserve">

<defs>
</defs>
<g style="stroke: none; stroke-width: 0; stroke-dasharray: none; stroke-linecap: butt; stroke-linejoin: miter; stroke-miterlimit: 10; fill: none; fill-rule: nonzero; opacity: 1;" transform="translate(1.4065934065934016 1.4065934065934016) scale(2.81 2.81)" >
	<rect x="40.85" y="76.51" rx="0" ry="0" width="10.38" height="7.63" style="stroke: none; stroke-width: 1; stroke-dasharray: none; stroke-linecap: butt; stroke-linejoin: miter; stroke-miterlimit: 10; fill: rgb(222,76,60); fill-rule: nonzero; opacity: 1;" transform=" matrix(1 0 0 1 0 0) "/>
	<rect x="59.74" y="61.67" rx="0" ry="0" width="10.38" height="22.47" style="stroke: none; stroke-width: 1; stroke-dasharray: none; stroke-linecap: butt; stroke-linejoin: miter; stroke-miterlimit: 10; fill: rgb(253,182,47); fill-rule: nonzero; opacity: 1;" transform=" matrix(1 0 0 1 0 0) "/>
	<rect x="78.62" y="42.99" rx="0" ry="0" width="10.38" height="41.15" style="stroke: none; stroke-width: 1; stroke-dasharray: none; stroke-linecap: butt; stroke-linejoin: miter; stroke-miterlimit: 10; fill: rgb(148,194,60); fill-rule: nonzero; opacity: 1;" transform=" matrix(1 0 0 1 0 0) "/>
	<polygon points="38,59.36 53.91,44.59 49.24,39.56 30.73,56.74 " style="stroke: none; stroke-width: 1; stroke-dasharray: none; stroke-linecap: butt; stroke-linejoin: miter; stroke-miterlimit: 10; fill: rgb(217,217,217); fill-rule: nonzero; opacity: 1;" transform="  matrix(1 0 0 1 0 0) "/>
	<path d="M 41.801 46.465 l -8.188 -3.225 c -2.803 -1.336 -6.109 -1.062 -8.661 0.706 c -6.335 4.389 -8.799 9.832 -14.739 16.388 L 23.95 75.125 c 2.694 -3.349 4.165 -7.296 4.202 -11.188 l 7.524 0.424 c 0.442 0.046 0.871 0.179 1.261 0.392 l 4.525 3.297 c 2.034 1.109 4.578 0.492 5.878 -1.426 l 0.42 -0.619 c 1.323 -1.951 0.916 -4.592 -0.932 -6.055 l -3.953 -3.574 c -0.403 -0.319 -0.873 -0.541 -1.376 -0.65 l -7.876 -1.667 L 41.801 46.465 z" style="stroke: none; stroke-width: 1; stroke-dasharray: none; stroke-linecap: butt; stroke-linejoin: miter; stroke-miterlimit: 10; fill: rgb(254,201,163); fill-rule: nonzero; opacity: 1;" transform=" matrix(1 0 0 1 0 0) " stroke-linecap="round" />
	<path d="M 23.949 76.125 c -0.22 0 -0.441 -0.072 -0.626 -0.221 c -0.43 -0.347 -0.499 -0.976 -0.152 -1.406 c 2.533 -3.147 3.947 -6.901 3.981 -10.57 c 0.002 -0.273 0.117 -0.533 0.316 -0.72 c 0.2 -0.188 0.468 -0.28 0.74 -0.269 l 7.523 0.424 c 0.622 0.063 1.172 0.233 1.683 0.511 c 0.039 0.021 0.076 0.045 0.111 0.07 l 4.469 3.257 c 1.581 0.827 3.512 0.343 4.517 -1.138 l 0.421 -0.619 c 1.022 -1.509 0.704 -3.577 -0.726 -4.709 l -4.003 -3.616 c -0.231 -0.181 -0.565 -0.339 -0.916 -0.414 l -12.113 -2.564 c -0.541 -0.114 -0.886 -0.646 -0.771 -1.186 c 0.114 -0.541 0.645 -0.886 1.186 -0.771 l 12.117 2.565 c 0.651 0.141 1.268 0.432 1.789 0.844 l 4.003 3.616 c 2.197 1.736 2.697 4.987 1.089 7.358 l -0.42 0.619 c -1.596 2.354 -4.684 3.105 -7.183 1.742 c -0.038 -0.021 -0.075 -0.044 -0.11 -0.069 l -4.467 -3.256 c -0.262 -0.134 -0.542 -0.218 -0.833 -0.247 l -6.463 -0.363 c -0.271 3.774 -1.805 7.558 -4.38 10.759 C 24.531 75.997 24.242 76.125 23.949 76.125 z" style="stroke: none; stroke-width: 1; stroke-dasharray: none; stroke-linecap: butt; stroke-linejoin: miter; stroke-miterlimit: 10; fill: rgb(0,0,0); fill-rule: nonzero; opacity: 1;" transform=" matrix(1 0 0 1 0 0) " stroke-linecap="round" />
	<path d="M 10.212 61.333 c -0.239 0 -0.479 -0.086 -0.671 -0.259 c -0.409 -0.371 -0.44 -1.003 -0.07 -1.413 c 2.109 -2.327 3.757 -4.49 5.351 -6.582 c 2.884 -3.786 5.375 -7.057 9.56 -9.956 c 2.844 -1.97 6.547 -2.272 9.661 -0.787 l 2.562 1.076 c 0.509 0.214 0.748 0.8 0.534 1.31 c -0.214 0.508 -0.798 0.749 -1.31 0.534 l -2.604 -1.095 c -2.512 -1.196 -5.448 -0.958 -7.705 0.606 c -3.925 2.719 -6.327 5.873 -9.108 9.524 c -1.619 2.125 -3.293 4.322 -5.459 6.714 C 10.756 61.223 10.484 61.333 10.212 61.333 z" style="stroke: none; stroke-width: 1; stroke-dasharray: none; stroke-linecap: butt; stroke-linejoin: miter; stroke-miterlimit: 10; fill: rgb(0,0,0); fill-rule: nonzero; opacity: 1;" transform=" matrix(1 0 0 1 0 0) " stroke-linecap="round" />
	<rect x="0.55" y="66.14" rx="0" ry="0" width="25.75" height="10" style="stroke: none; stroke-width: 1; stroke-dasharray: none; stroke-linecap: butt; stroke-linejoin: miter; stroke-miterlimit: 10; fill: rgb(67,152,209); fill-rule: nonzero; opacity: 1;" transform=" matrix(-0.6805 -0.7328 0.7328 -0.6805 -29.5662 129.3902) "/>
	<path d="M 18.525 84.979 c -0.268 0 -0.536 -0.107 -0.733 -0.319 L 0.267 65.788 c -0.375 -0.405 -0.352 -1.037 0.052 -1.413 l 7.327 -6.805 c 0.195 -0.182 0.438 -0.289 0.718 -0.267 c 0.265 0.01 0.515 0.124 0.696 0.318 l 17.526 18.872 c 0.18 0.194 0.276 0.452 0.267 0.718 c -0.01 0.265 -0.125 0.516 -0.319 0.695 l -7.327 6.804 C 19.013 84.89 18.769 84.979 18.525 84.979 z M 2.413 65.159 l 16.165 17.406 l 5.862 -5.443 L 8.274 59.716 L 2.413 65.159 z" style="stroke: none; stroke-width: 1; stroke-dasharray: none; stroke-linecap: butt; stroke-linejoin: miter; stroke-miterlimit: 10; fill: rgb(0,0,0); fill-rule: nonzero; opacity: 1;" transform=" matrix(1 0 0 1 0 0) " stroke-linecap="round" />
	<path d="M 46.606 52.366 c -0.269 0 -0.536 -0.107 -0.733 -0.319 c -0.375 -0.405 -0.352 -1.037 0.052 -1.413 l 7.299 -6.779 c 0.403 -0.375 1.038 -0.353 1.413 0.052 c 0.376 0.405 0.353 1.038 -0.052 1.414 l -7.299 6.778 C 47.095 52.277 46.851 52.366 46.606 52.366 z" style="stroke: none; stroke-width: 1; stroke-dasharray: none; stroke-linecap: butt; stroke-linejoin: miter; stroke-miterlimit: 10; fill: rgb(0,0,0); fill-rule: nonzero; opacity: 1;" transform=" matrix(1 0 0 1 0 0) " stroke-linecap="round" />
	<path d="M 40.854 48.345 c -0.268 0 -0.536 -0.107 -0.733 -0.319 c -0.375 -0.405 -0.352 -1.037 0.052 -1.413 l 8.383 -7.786 c 0.403 -0.376 1.038 -0.353 1.413 0.052 c 0.376 0.405 0.353 1.038 -0.052 1.414 l -8.383 7.785 C 41.341 48.256 41.097 48.345 40.854 48.345 z" style="stroke: none; stroke-width: 1; stroke-dasharray: none; stroke-linecap: butt; stroke-linejoin: miter; stroke-miterlimit: 10; fill: rgb(0,0,0); fill-rule: nonzero; opacity: 1;" transform=" matrix(1 0 0 1 0 0) " stroke-linecap="round" />
	<circle cx="67.238" cy="27.518" r="21.658" style="stroke: none; stroke-width: 1; stroke-dasharray: none; stroke-linecap: butt; stroke-linejoin: miter; stroke-miterlimit: 10; fill: rgb(135,206,217); fill-rule: nonzero; opacity: 1;" transform="  matrix(1 0 0 1 0 0) "/>
	<path d="M 67.25 50.167 c -6.085 0 -12.153 -2.429 -16.61 -7.228 c -4.119 -4.435 -6.264 -10.208 -6.04 -16.256 s 2.789 -11.647 7.224 -15.766 c 9.157 -8.5 23.521 -7.969 32.021 1.184 c 4.119 4.435 6.264 10.208 6.04 16.256 s -2.789 11.647 -7.224 15.766 C 78.305 48.167 72.771 50.167 67.25 50.167 z M 67.223 6.862 c -5.229 0 -10.187 1.944 -14.038 5.521 c -4.043 3.755 -6.383 8.859 -6.586 14.374 c -0.204 5.514 1.751 10.778 5.506 14.821 c 7.752 8.346 20.849 8.831 29.194 1.08 c 4.043 -3.755 6.383 -8.859 6.586 -14.374 c 0.204 -5.514 -1.751 -10.778 -5.506 -14.821 c -3.755 -4.043 -8.86 -6.382 -14.374 -6.586 C 67.744 6.867 67.482 6.862 67.223 6.862 z" style="stroke: none; stroke-width: 1; stroke-dasharray: none; stroke-linecap: butt; stroke-linejoin: miter; stroke-miterlimit: 10; fill: rgb(0,0,0); fill-rule: nonzero; opacity: 1;" transform=" matrix(1 0 0 1 0 0) " stroke-linecap="round" />
	<path d="M 51.232 85.138 H 40.854 c -0.552 0 -1 -0.447 -1 -1 v -7.632 c 0 -0.553 0.448 -1 1 -1 h 10.379 c 0.553 0 1 0.447 1 1 v 7.632 C 52.232 84.69 51.785 85.138 51.232 85.138 z M 41.854 83.138 h 8.379 v -5.632 h -8.379 V 83.138 z" style="stroke: none; stroke-width: 1; stroke-dasharray: none; stroke-linecap: butt; stroke-linejoin: miter; stroke-miterlimit: 10; fill: rgb(0,0,0); fill-rule: nonzero; opacity: 1;" transform=" matrix(1 0 0 1 0 0) " stroke-linecap="round" />
	<path d="M 70.116 85.138 H 59.737 c -0.553 0 -1 -0.447 -1 -1 v -22.47 c 0 -0.553 0.447 -1 1 -1 h 10.379 c 0.553 0 1 0.447 1 1 v 22.47 C 71.116 84.69 70.669 85.138 70.116 85.138 z M 60.737 83.138 h 8.379 v -20.47 h -8.379 V 83.138 z" style="stroke: none; stroke-width: 1; stroke-dasharray: none; stroke-linecap: butt; stroke-linejoin: miter; stroke-miterlimit: 10; fill: rgb(0,0,0); fill-rule: nonzero; opacity: 1;" transform=" matrix(1 0 0 1 0 0) " stroke-linecap="round" />
	<path d="M 89 85.138 H 78.621 c -0.553 0 -1 -0.447 -1 -1 V 54.924 c 0 -0.553 0.447 -1 1 -1 s 1 0.447 1 1 v 28.214 H 88 V 46.831 c 0 -0.553 0.447 -1 1 -1 s 1 0.447 1 1 v 37.307 C 90 84.69 89.553 85.138 89 85.138 z" style="stroke: none; stroke-width: 1; stroke-dasharray: none; stroke-linecap: butt; stroke-linejoin: miter; stroke-miterlimit: 10; fill: rgb(0,0,0); fill-rule: nonzero; opacity: 1;" transform=" matrix(1 0 0 1 0 0) " stroke-linecap="round" />
	<path d="M 54.78 34.481 c -0.287 0 -0.572 -0.123 -0.771 -0.361 c -0.353 -0.425 -0.294 -1.056 0.131 -1.408 l 8.799 -7.31 c 0.21 -0.175 0.48 -0.255 0.757 -0.224 c 0.271 0.032 0.519 0.175 0.683 0.395 l 3.43 4.59 l 12.045 -9.894 c 0.429 -0.352 1.058 -0.289 1.407 0.138 c 0.351 0.427 0.289 1.057 -0.138 1.408 L 68.269 32.373 c -0.211 0.173 -0.484 0.251 -0.755 0.22 c -0.271 -0.033 -0.518 -0.175 -0.681 -0.394 l -3.426 -4.585 l -7.989 6.637 C 55.231 34.405 55.005 34.481 54.78 34.481 z" style="stroke: none; stroke-width: 1; stroke-dasharray: none; stroke-linecap: butt; stroke-linejoin: miter; stroke-miterlimit: 10; fill: rgb(0,0,0); fill-rule: nonzero; opacity: 1;" transform=" matrix(1 0 0 1 0 0) " stroke-linecap="round" />
</g>
</svg>