<svg xmlns="http://www.w3.org/2000/svg" xmlns:xlink="http://www.w3.org/1999/xlink" version="1.1" width="256" height="256" viewBox="0 0 256 256" xml:space="preserve">

<defs>
</defs>
<g style="stroke: none; stroke-width: 0; stroke-dasharray: none; stroke-linecap: butt; stroke-linejoin: miter; stroke-miterlimit: 10; fill: none; fill-rule: nonzero; opacity: 1;" transform="translate(1.4065934065934016 1.4065934065934016) scale(2.81 2.81)" >
	<path d="M 56.943 64.002 c -1.56 -2.718 -3.92 -5.55 -8.452 -4.772 l -13.453 2.437 c -4.672 0.382 -7.944 -3.683 -12.489 -3.279 l -3.146 0.279 v 26.914 l 6.367 -0.565 c 6.376 -0.566 12.321 4.471 18.236 3.946 c 6.463 -0.564 23.683 -11.767 41.566 -22.924 c 1.16 -0.724 1.585 -2.252 0.88 -3.424 c -3.643 -6.046 -9.398 -7.887 -14.111 -5.769 L 56.943 64.002 z" style="stroke: none; stroke-width: 1; stroke-dasharray: none; stroke-linecap: butt; stroke-linejoin: miter; stroke-miterlimit: 10; fill: rgb(249,194,149); fill-rule: nonzero; opacity: 1;" transform=" matrix(1 0 0 1 0 0) " stroke-linecap="round" />
	<path d="M 17.01 89 H 5.598 c -1.322 0 -2.394 -1.072 -2.394 -2.394 V 55.93 c 0 -1.322 1.072 -2.394 2.394 -2.394 H 17.01 c 1.322 0 2.394 1.072 2.394 2.394 v 30.677 C 19.404 87.928 18.332 89 17.01 89 z" style="stroke: none; stroke-width: 1; stroke-dasharray: none; stroke-linecap: butt; stroke-linejoin: miter; stroke-miterlimit: 10; fill: rgb(106,172,218); fill-rule: nonzero; opacity: 1;" transform=" matrix(1 0 0 1 0 0) " stroke-linecap="round" />
	<path d="M 43.133 90 c -2.799 0 -5.565 -1.028 -8.25 -2.026 c -2.951 -1.096 -5.996 -2.233 -9.024 -1.962 l -7.455 0.662 V 57.751 l 4.057 -0.36 c 2.529 -0.216 4.644 0.76 6.686 1.711 c 1.917 0.894 3.729 1.746 5.81 1.567 l 13.357 -2.424 c 4.782 -0.818 7.419 1.943 9.022 4.472 l 14.582 -6.78 c 5.501 -2.469 11.683 0.006 15.39 6.161 c 0.974 1.618 0.432 3.766 -1.207 4.788 c -1.891 1.179 -3.773 2.359 -5.637 3.526 C 64.178 80.618 50.112 89.433 44.093 89.958 C 43.773 89.986 43.453 90 43.133 90 z M 26.792 83.971 c 3.062 0 5.968 1.08 8.788 2.128 c 2.911 1.083 5.666 2.102 8.338 1.867 c 5.541 -0.484 20.086 -9.599 35.484 -19.248 c 1.865 -1.168 3.749 -2.349 5.641 -3.529 c 0.719 -0.448 0.966 -1.372 0.553 -2.06 c -3.16 -5.245 -8.325 -7.4 -12.845 -5.373 l -16.219 7.54 L 56.076 64.5 c -1.436 -2.503 -3.438 -4.965 -7.415 -4.285 L 35.217 62.65 c -2.7 0.22 -4.845 -0.771 -6.915 -1.735 c -1.886 -0.88 -3.666 -1.711 -5.665 -1.532 l -2.234 0.198 v 24.907 l 5.278 -0.469 C 26.054 83.986 26.424 83.971 26.792 83.971 z" style="stroke: none; stroke-width: 1; stroke-dasharray: none; stroke-linecap: butt; stroke-linejoin: miter; stroke-miterlimit: 10; fill: rgb(0,0,0); fill-rule: nonzero; opacity: 1;" transform=" matrix(1 0 0 1 0 0) " stroke-linecap="round" />
	<path d="M 39.386 75.975 c -0.467 0 -0.885 -0.328 -0.979 -0.804 c -0.108 -0.542 0.243 -1.068 0.785 -1.177 c 5.274 -1.055 11.206 -3.465 18.109 -7.36 L 56.076 64.5 c -0.275 -0.479 -0.109 -1.091 0.369 -1.365 c 0.479 -0.274 1.091 -0.109 1.365 0.369 l 1.724 3.004 c 0.274 0.479 0.11 1.09 -0.368 1.365 c -7.467 4.297 -13.873 6.94 -19.583 8.082 C 39.517 75.969 39.451 75.975 39.386 75.975 z" style="stroke: none; stroke-width: 1; stroke-dasharray: none; stroke-linecap: butt; stroke-linejoin: miter; stroke-miterlimit: 10; fill: rgb(0,0,0); fill-rule: nonzero; opacity: 1;" transform=" matrix(1 0 0 1 0 0) " stroke-linecap="round" />
	<path d="M 17.01 90 H 5.598 c -1.871 0 -3.394 -1.522 -3.394 -3.394 V 55.93 c 0 -1.871 1.522 -3.394 3.394 -3.394 H 17.01 c 1.871 0 3.394 1.522 3.394 3.394 v 30.677 C 20.404 88.478 18.881 90 17.01 90 z M 5.598 54.536 c -0.769 0 -1.394 0.625 -1.394 1.394 v 30.677 C 4.205 87.375 4.83 88 5.598 88 H 17.01 c 0.769 0 1.394 -0.625 1.394 -1.394 V 55.93 c 0 -0.769 -0.625 -1.394 -1.394 -1.394 H 5.598 z" style="stroke: none; stroke-width: 1; stroke-dasharray: none; stroke-linecap: butt; stroke-linejoin: miter; stroke-miterlimit: 10; fill: rgb(0,0,0); fill-rule: nonzero; opacity: 1;" transform=" matrix(1 0 0 1 0 0) " stroke-linecap="round" />
	<path d="M 47.061 29.554 c -3.543 -1.467 -3.543 -6.485 0 -7.953 c 0.503 -0.208 0.742 -0.785 0.533 -1.288 l -1.857 -4.482 c -0.208 -0.503 -0.785 -0.742 -1.288 -0.533 c -3.543 1.467 -7.091 -2.081 -5.623 -5.623 c 0.208 -0.503 -0.031 -1.079 -0.533 -1.288 l -4.482 -1.857 c -0.503 -0.208 -1.079 0.031 -1.288 0.533 c -1.467 3.543 -6.485 3.543 -7.953 0 c -0.208 -0.503 -0.785 -0.742 -1.288 -0.533 l -4.482 1.857 c -0.503 0.208 -0.742 0.785 -0.533 1.288 c 1.467 3.543 -2.081 7.091 -5.624 5.624 c -0.503 -0.208 -1.079 0.031 -1.288 0.533 L 9.5 20.314 c -0.208 0.503 0.031 1.079 0.533 1.288 c 3.543 1.467 3.543 6.485 0 7.953 c -0.503 0.208 -0.742 0.785 -0.533 1.288 l 1.857 4.482 c 0.208 0.503 0.785 0.742 1.288 0.533 c 3.543 -1.467 7.091 2.081 5.623 5.624 c -0.208 0.503 0.031 1.079 0.533 1.288 l 4.482 1.857 c 0.503 0.208 1.079 -0.031 1.288 -0.533 c 1.467 -3.543 6.485 -3.543 7.953 0 c 0.208 0.503 0.785 0.742 1.288 0.533 l 4.482 -1.857 c 0.503 -0.208 0.742 -0.785 0.533 -1.288 c -1.467 -3.543 2.081 -7.091 5.624 -5.623 c 0.503 0.208 1.079 -0.031 1.288 -0.533 l 1.857 -4.482 C 47.803 30.339 47.564 29.763 47.061 29.554 z M 28.548 32.074 c -3.588 0 -6.497 -2.909 -6.497 -6.497 c 0 -3.588 2.909 -6.497 6.497 -6.497 s 6.497 2.909 6.497 6.497 C 35.044 29.166 32.136 32.074 28.548 32.074 z" style="stroke: none; stroke-width: 1; stroke-dasharray: none; stroke-linecap: butt; stroke-linejoin: miter; stroke-miterlimit: 10; fill: rgb(255,215,125); fill-rule: nonzero; opacity: 1;" transform=" matrix(1 0 0 1 0 0) " stroke-linecap="round" />
	<path d="M 33.434 45.701 c -0.258 0 -0.515 -0.051 -0.76 -0.152 c -0.49 -0.203 -0.872 -0.584 -1.074 -1.075 c -0.623 -1.504 -1.985 -2.04 -3.052 -2.04 c -1.067 0 -2.43 0.536 -3.053 2.04 c -0.42 1.012 -1.584 1.492 -2.595 1.074 l -4.481 -1.856 c -0.49 -0.203 -0.872 -0.585 -1.075 -1.075 c -0.203 -0.49 -0.203 -1.03 0 -1.52 c 0.623 -1.503 0.039 -2.846 -0.716 -3.6 c -0.755 -0.755 -2.098 -1.34 -3.601 -0.716 c -1.014 0.418 -2.175 -0.064 -2.594 -1.075 l -1.856 -4.481 c -0.203 -0.49 -0.203 -1.03 0 -1.52 c 0.203 -0.49 0.584 -0.872 1.075 -1.074 c 1.504 -0.623 2.04 -1.985 2.04 -3.053 s -0.536 -2.43 -2.04 -3.053 c -0.49 -0.203 -0.871 -0.584 -1.074 -1.074 c -0.203 -0.49 -0.203 -1.03 0 -1.52 l 1.856 -4.481 c 0.418 -1.011 1.583 -1.493 2.594 -1.075 c 1.505 0.622 2.846 0.039 3.601 -0.716 c 0.755 -0.754 1.339 -2.097 0.716 -3.601 c -0.418 -1.012 0.064 -2.175 1.075 -2.594 l 4.482 -1.856 c 0.49 -0.203 1.029 -0.203 1.52 0 c 0.49 0.203 0.872 0.585 1.075 1.075 c 0.623 1.503 1.985 2.04 3.052 2.04 c 0 0 0 0 0 0 c 1.067 0 2.43 -0.536 3.053 -2.04 c 0.203 -0.49 0.584 -0.872 1.074 -1.075 c 0.49 -0.202 1.03 -0.203 1.52 0 l 4.482 1.857 c 0.49 0.203 0.872 0.584 1.075 1.074 c 0.203 0.49 0.203 1.03 0 1.52 c -0.623 1.503 -0.039 2.845 0.716 3.6 c 0.755 0.754 2.098 1.339 3.601 0.716 c 1.011 -0.42 2.175 0.063 2.594 1.075 l 1.856 4.481 c 0.203 0.49 0.203 1.03 0 1.52 c -0.203 0.49 -0.585 0.872 -1.075 1.075 c -1.503 0.623 -2.039 1.985 -2.039 3.052 s 0.536 2.43 2.04 3.053 l 0 0 c 0.49 0.203 0.872 0.585 1.074 1.075 c 0.203 0.49 0.202 1.03 -0.001 1.52 l -1.856 4.481 c -0.202 0.49 -0.584 0.872 -1.074 1.075 c -0.491 0.203 -1.03 0.203 -1.52 0 c -1.504 -0.623 -2.845 -0.038 -3.601 0.716 c -0.754 0.754 -1.339 2.097 -0.716 3.601 c 0.418 1.011 -0.063 2.175 -1.074 2.594 l -4.482 1.856 C 33.949 45.65 33.691 45.701 33.434 45.701 z M 28.547 40.434 c 2.186 0 4.063 1.255 4.9 3.274 l 4.463 -1.864 c -0.844 -2.001 -0.404 -4.216 1.142 -5.762 c 1.546 -1.544 3.762 -1.986 5.78 -1.149 l 1.832 -4.461 c -2.011 -0.839 -3.26 -2.713 -3.26 -4.895 c 0 -2.186 1.255 -4.064 3.274 -4.9 l -1.864 -4.462 c -2.003 0.842 -4.216 0.403 -5.762 -1.143 c -1.545 -1.546 -1.986 -3.76 -1.149 -5.78 l -4.475 -1.838 c -0.817 2.012 -2.695 3.267 -4.881 3.267 c 0 0 0 0 0 0 c -2.186 0 -4.063 -1.255 -4.9 -3.274 l -4.463 1.864 c 0.844 2.001 0.403 4.216 -1.142 5.762 c -1.545 1.545 -3.76 1.986 -5.781 1.149 l -1.837 4.474 c 2.012 0.817 3.267 2.695 3.267 4.881 s -1.255 4.064 -3.274 4.9 l 1.864 4.462 c 2.001 -0.842 4.216 -0.403 5.762 1.142 c 1.545 1.546 1.986 3.761 1.149 5.781 l 4.474 1.837 C 24.483 41.689 26.361 40.434 28.547 40.434 z" style="stroke: none; stroke-width: 1; stroke-dasharray: none; stroke-linecap: butt; stroke-linejoin: miter; stroke-miterlimit: 10; fill: rgb(0,0,0); fill-rule: nonzero; opacity: 1;" transform=" matrix(1 0 0 1 0 0) " stroke-linecap="round" />
	<circle cx="76.678" cy="4.898" r="3.898" style="stroke: none; stroke-width: 1; stroke-dasharray: none; stroke-linecap: butt; stroke-linejoin: miter; stroke-miterlimit: 10; fill: rgb(105,214,152); fill-rule: nonzero; opacity: 1;" transform="  matrix(1 0 0 1 0 0) "/>
	<circle cx="76.678" cy="46.258" r="3.898" style="stroke: none; stroke-width: 1; stroke-dasharray: none; stroke-linecap: butt; stroke-linejoin: miter; stroke-miterlimit: 10; fill: rgb(105,214,152); fill-rule: nonzero; opacity: 1;" transform="  matrix(1 0 0 1 0 0) "/>
	<circle cx="76.678" cy="25.318" r="3.898" style="stroke: none; stroke-width: 1; stroke-dasharray: none; stroke-linecap: butt; stroke-linejoin: miter; stroke-miterlimit: 10; fill: rgb(105,214,152); fill-rule: nonzero; opacity: 1;" transform="  matrix(1 0 0 1 0 0) "/>
	<path d="M 28.547 33.075 c -4.134 0 -7.497 -3.363 -7.497 -7.497 s 3.363 -7.497 7.497 -7.497 s 7.497 3.363 7.497 7.497 S 32.681 33.075 28.547 33.075 z M 28.547 20.081 c -3.031 0 -5.497 2.466 -5.497 5.497 c 0 3.031 2.466 5.497 5.497 5.497 c 3.031 0 5.497 -2.466 5.497 -5.497 C 34.044 22.547 31.579 20.081 28.547 20.081 z" style="stroke: none; stroke-width: 1; stroke-dasharray: none; stroke-linecap: butt; stroke-linejoin: miter; stroke-miterlimit: 10; fill: rgb(0,0,0); fill-rule: nonzero; opacity: 1;" transform=" matrix(1 0 0 1 0 0) " stroke-linecap="round" />
	<path d="M 65.753 26.318 H 44.422 c -0.552 0 -1 -0.448 -1 -1 s 0.448 -1 1 -1 h 21.331 c 0.553 0 1 0.448 1 1 S 66.306 26.318 65.753 26.318 z" style="stroke: none; stroke-width: 1; stroke-dasharray: none; stroke-linecap: butt; stroke-linejoin: miter; stroke-miterlimit: 10; fill: rgb(0,0,0); fill-rule: nonzero; opacity: 1;" transform=" matrix(1 0 0 1 0 0) " stroke-linecap="round" />
	<path d="M 72.778 47.257 h -7.025 c -0.553 0 -1 -0.447 -1 -1 V 4.898 c 0 -0.552 0.447 -1 1 -1 h 7.025 c 0.553 0 1 0.448 1 1 s -0.447 1 -1 1 h -6.025 v 39.358 h 6.025 c 0.553 0 1 0.448 1 1 C 73.778 46.81 73.331 47.257 72.778 47.257 z" style="stroke: none; stroke-width: 1; stroke-dasharray: none; stroke-linecap: butt; stroke-linejoin: miter; stroke-miterlimit: 10; fill: rgb(0,0,0); fill-rule: nonzero; opacity: 1;" transform=" matrix(1 0 0 1 0 0) " stroke-linecap="round" />
	<path d="M 76.677 9.797 c -2.701 0 -4.898 -2.197 -4.898 -4.898 S 73.976 0 76.677 0 s 4.898 2.197 4.898 4.898 S 79.378 9.797 76.677 9.797 z M 76.677 2 c -1.599 0 -2.898 1.3 -2.898 2.898 s 1.3 2.898 2.898 2.898 s 2.898 -1.3 2.898 -2.898 S 78.275 2 76.677 2 z" style="stroke: none; stroke-width: 1; stroke-dasharray: none; stroke-linecap: butt; stroke-linejoin: miter; stroke-miterlimit: 10; fill: rgb(0,0,0); fill-rule: nonzero; opacity: 1;" transform=" matrix(1 0 0 1 0 0) " stroke-linecap="round" />
	<path d="M 76.677 51.155 c -2.701 0 -4.898 -2.197 -4.898 -4.898 s 2.197 -4.898 4.898 -4.898 s 4.898 2.197 4.898 4.898 S 79.378 51.155 76.677 51.155 z M 76.677 43.358 c -1.599 0 -2.898 1.3 -2.898 2.898 c 0 1.599 1.3 2.898 2.898 2.898 s 2.898 -1.3 2.898 -2.898 C 79.575 44.659 78.275 43.358 76.677 43.358 z" style="stroke: none; stroke-width: 1; stroke-dasharray: none; stroke-linecap: butt; stroke-linejoin: miter; stroke-miterlimit: 10; fill: rgb(0,0,0); fill-rule: nonzero; opacity: 1;" transform=" matrix(1 0 0 1 0 0) " stroke-linecap="round" />
	<path d="M 76.677 30.216 c -2.701 0 -4.898 -2.197 -4.898 -4.898 s 2.197 -4.898 4.898 -4.898 s 4.898 2.197 4.898 4.898 S 79.378 30.216 76.677 30.216 z M 76.677 22.419 c -1.599 0 -2.898 1.3 -2.898 2.898 s 1.3 2.898 2.898 2.898 s 2.898 -1.3 2.898 -2.898 S 78.275 22.419 76.677 22.419 z" style="stroke: none; stroke-width: 1; stroke-dasharray: none; stroke-linecap: butt; stroke-linejoin: miter; stroke-miterlimit: 10; fill: rgb(0,0,0); fill-rule: nonzero; opacity: 1;" transform=" matrix(1 0 0 1 0 0) " stroke-linecap="round" />
	<path d="M 72.778 26.318 h -7.025 c -0.553 0 -1 -0.448 -1 -1 s 0.447 -1 1 -1 h 7.025 c 0.553 0 1 0.448 1 1 S 73.331 26.318 72.778 26.318 z" style="stroke: none; stroke-width: 1; stroke-dasharray: none; stroke-linecap: butt; stroke-linejoin: miter; stroke-miterlimit: 10; fill: rgb(0,0,0); fill-rule: nonzero; opacity: 1;" transform=" matrix(1 0 0 1 0 0) " stroke-linecap="round" />
</g>
</svg>