<svg xmlns="http://www.w3.org/2000/svg" xmlns:xlink="http://www.w3.org/1999/xlink" version="1.1" width="256" height="256" viewBox="0 0 256 256" xml:space="preserve">

<defs>
</defs>
<g style="stroke: none; stroke-width: 0; stroke-dasharray: none; stroke-linecap: butt; stroke-linejoin: miter; stroke-miterlimit: 10; fill: none; fill-rule: nonzero; opacity: 1;" transform="translate(1.4065934065934016 1.4065934065934016) scale(2.81 2.81)" >
	<path d="M 65.677 41.358 c -1.382 0 -2.621 -0.795 -3.255 -2.022 c -0.127 -0.245 -0.259 -0.488 -0.398 -0.729 c -0.139 -0.241 -0.283 -0.477 -0.432 -0.709 c -0.745 -1.163 -0.814 -2.634 -0.123 -3.83 v 0 c 1.003 -1.738 0.408 -3.96 -1.33 -4.964 l -4.813 -2.779 c -1.738 -1.003 -3.96 -0.408 -4.964 1.33 l -0.001 0.002 c -0.681 1.179 -1.963 1.874 -3.322 1.807 c -0.591 -0.029 -1.184 -0.029 -1.778 0 c -1.357 0.066 -2.636 -0.631 -3.316 -1.808 l -0.001 -0.001 c -1.003 -1.738 -3.226 -2.333 -4.964 -1.33 l -4.813 2.779 c -1.738 1.003 -2.333 3.226 -1.33 4.964 l 0.001 0.001 c 0.679 1.177 0.643 2.633 -0.092 3.775 c -0.322 0.5 -0.618 1.014 -0.889 1.54 c -0.622 1.211 -1.865 1.974 -3.226 1.974 h -0.002 c -2.007 0 -3.634 1.627 -3.634 3.634 v 5.558 c 0 2.007 1.627 3.634 3.634 3.634 v 0 c 1.382 0 2.621 0.795 3.255 2.022 c 0.126 0.245 0.259 0.488 0.398 0.729 c 0.139 0.241 0.283 0.477 0.432 0.709 c 0.745 1.163 0.814 2.634 0.123 3.83 c -1.003 1.738 -0.408 3.96 1.33 4.964 l 4.813 2.779 c 1.738 1.003 3.96 0.408 4.964 -1.33 l 0.001 -0.002 c 0.681 -1.179 1.963 -1.874 3.322 -1.807 c 0.591 0.029 1.184 0.029 1.778 0 c 1.357 -0.066 2.636 0.631 3.316 1.808 l 0.001 0.001 c 1.003 1.738 3.226 2.333 4.964 1.33 l 4.813 -2.779 c 1.738 -1.003 2.333 -3.226 1.33 -4.964 l -0.001 -0.001 c -0.679 -1.177 -0.643 -2.633 0.092 -3.775 c 0.322 -0.5 0.618 -1.014 0.889 -1.54 c 0.622 -1.211 1.865 -1.974 3.227 -1.974 l 0.002 0 c 2.007 0 3.634 -1.627 3.634 -3.634 v -5.558 C 69.311 42.985 67.684 41.358 65.677 41.358 z M 50.561 55.406 c -4.217 2.435 -9.609 0.99 -12.043 -3.227 c -2.435 -4.217 -0.99 -9.609 3.227 -12.043 c 4.217 -2.435 9.609 -0.99 12.043 3.227 C 56.222 47.579 54.778 52.971 50.561 55.406 z" style="stroke: none; stroke-width: 1; stroke-dasharray: none; stroke-linecap: butt; stroke-linejoin: miter; stroke-miterlimit: 10; fill: rgb(233,68,80); fill-rule: nonzero; opacity: 1;" transform=" matrix(1 0 0 1 0 0) " stroke-linecap="round" />
	<path d="M 38.79 70.704 c -0.803 0 -1.596 -0.211 -2.31 -0.623 l -4.813 -2.778 c -1.072 -0.619 -1.838 -1.618 -2.159 -2.813 c -0.321 -1.195 -0.156 -2.444 0.462 -3.517 c 0.494 -0.855 0.456 -1.925 -0.099 -2.791 c -0.157 -0.243 -0.309 -0.493 -0.457 -0.748 c -0.146 -0.254 -0.286 -0.51 -0.419 -0.768 c -0.473 -0.916 -1.38 -1.483 -2.368 -1.483 c -2.555 0 -4.634 -2.078 -4.634 -4.633 v -5.558 c 0 -2.555 2.079 -4.633 4.634 -4.633 c 0.989 0 1.885 -0.548 2.339 -1.431 c 0.285 -0.555 0.601 -1.101 0.937 -1.624 c 0.536 -0.832 0.561 -1.879 0.067 -2.734 c -1.278 -2.213 -0.518 -5.053 1.695 -6.331 l 4.813 -2.779 c 1.071 -0.619 2.319 -0.783 3.516 -0.463 c 1.196 0.32 2.195 1.087 2.814 2.159 c 0.494 0.856 1.41 1.366 2.401 1.31 c 0.625 -0.03 1.255 -0.03 1.875 0 c 1.007 0.052 1.914 -0.453 2.407 -1.308 c 1.279 -2.214 4.121 -2.973 6.331 -1.698 l 4.814 2.779 c 2.212 1.278 2.973 4.117 1.696 6.33 c -0.494 0.855 -0.456 1.924 0.099 2.791 c 0.157 0.245 0.309 0.494 0.455 0.748 c 0.147 0.256 0.287 0.512 0.421 0.769 c 0.474 0.915 1.38 1.482 2.367 1.482 c 2.555 0 4.634 2.079 4.634 4.633 v 5.558 c 0 2.555 -2.079 4.633 -4.634 4.633 c -0.988 0 -1.885 0.548 -2.338 1.431 c -0.284 0.552 -0.6 1.099 -0.938 1.625 c -0.535 0.83 -0.561 1.878 -0.066 2.733 c 1.277 2.214 0.517 5.054 -1.695 6.331 l -4.814 2.778 c -2.21 1.276 -5.051 0.518 -6.33 -1.695 c -0.494 -0.855 -1.417 -1.348 -2.402 -1.311 c -0.621 0.031 -1.254 0.031 -1.875 0 c -1 -0.052 -1.913 0.453 -2.407 1.309 c -0.62 1.073 -1.619 1.84 -2.815 2.16 C 39.597 70.652 39.192 70.704 38.79 70.704 z M 38.793 26.838 c -0.457 0 -0.907 0.12 -1.313 0.354 l -4.813 2.779 c -1.258 0.726 -1.69 2.34 -0.964 3.597 c 0.871 1.508 0.826 3.354 -0.117 4.818 c -0.302 0.468 -0.584 0.958 -0.84 1.456 c -0.798 1.552 -2.376 2.516 -4.116 2.516 c -1.453 0 -2.635 1.181 -2.635 2.633 v 5.558 c 0 1.452 1.182 2.633 2.634 2.633 c 1.739 0 3.326 0.982 4.143 2.563 c 0.119 0.229 0.245 0.459 0.376 0.688 c 0.131 0.228 0.267 0.45 0.407 0.668 c 0.961 1.5 1.018 3.366 0.148 4.871 c -0.352 0.609 -0.445 1.319 -0.263 1.999 c 0.182 0.68 0.618 1.247 1.227 1.599 l 4.813 2.778 c 0.609 0.353 1.318 0.446 1.999 0.264 c 0.679 -0.182 1.247 -0.617 1.599 -1.227 c 0.872 -1.511 2.497 -2.399 4.238 -2.309 c 0.556 0.027 1.121 0.027 1.68 0 c 1.728 -0.09 3.36 0.8 4.231 2.308 c 0.727 1.257 2.339 1.692 3.598 0.964 l 4.814 -2.778 c 0.609 -0.352 1.045 -0.919 1.227 -1.599 c 0.182 -0.68 0.089 -1.39 -0.264 -1.999 c -0.87 -1.508 -0.825 -3.354 0.117 -4.817 c 0.305 -0.473 0.587 -0.962 0.841 -1.456 c 0.798 -1.553 2.375 -2.517 4.115 -2.517 c 1.453 0 2.636 -1.181 2.636 -2.633 v -5.558 c 0 -1.452 -1.182 -2.633 -2.634 -2.633 c -1.738 0 -3.325 -0.982 -4.144 -2.563 c -0.119 -0.231 -0.245 -0.461 -0.377 -0.689 c -0.131 -0.226 -0.267 -0.449 -0.406 -0.669 c -0.961 -1.499 -1.017 -3.365 -0.147 -4.87 c 0.726 -1.257 0.293 -2.871 -0.964 -3.597 l -4.814 -2.778 c -1.258 -0.727 -2.872 -0.294 -3.598 0.964 c -0.871 1.508 -2.484 2.384 -4.238 2.308 c -0.556 -0.028 -1.122 -0.028 -1.681 0 c -1.737 0.079 -3.359 -0.8 -4.23 -2.307 c -0.352 -0.61 -0.92 -1.046 -1.6 -1.228 C 39.252 26.868 39.021 26.838 38.793 26.838 z M 46.169 57.591 c -0.853 0 -1.711 -0.112 -2.556 -0.339 c -2.533 -0.679 -4.65 -2.303 -5.961 -4.573 c -2.706 -4.688 -1.094 -10.703 3.593 -13.409 c 2.271 -1.311 4.916 -1.66 7.449 -0.98 c 2.533 0.679 4.649 2.303 5.961 4.574 c 1.311 2.271 1.659 4.916 0.98 7.449 c -0.679 2.532 -2.304 4.648 -4.574 5.96 l 0 0 C 49.548 57.145 47.869 57.591 46.169 57.591 z M 46.14 39.951 c -1.354 0 -2.69 0.355 -3.895 1.051 c -3.732 2.155 -5.015 6.944 -2.86 10.677 c 1.043 1.808 2.729 3.102 4.746 3.642 c 2.018 0.542 4.123 0.262 5.931 -0.781 l 0 0 c 1.809 -1.044 3.102 -2.73 3.643 -4.746 c 0.54 -2.017 0.263 -4.123 -0.781 -5.93 c -1.044 -1.808 -2.73 -3.102 -4.746 -3.642 C 47.503 40.04 46.819 39.951 46.14 39.951 z" style="stroke: none; stroke-width: 1; stroke-dasharray: none; stroke-linecap: butt; stroke-linejoin: miter; stroke-miterlimit: 10; fill: rgb(0,0,0); fill-rule: nonzero; opacity: 1;" transform=" matrix(1 0 0 1 0 0) " stroke-linecap="round" />
	<path d="M 54.012 6.882 L 54.224 6.7 c 1.358 -1.168 1.512 -3.215 0.344 -4.572 s -3.215 -1.512 -4.572 -0.343 l -5.957 5.125 c -0.03 0.026 -0.053 0.059 -0.082 0.086 c -0.081 0.075 -0.154 0.155 -0.227 0.238 c -0.066 0.075 -0.132 0.15 -0.191 0.231 c -0.065 0.089 -0.12 0.182 -0.176 0.277 c -0.05 0.086 -0.099 0.17 -0.141 0.26 c -0.047 0.1 -0.083 0.203 -0.12 0.308 c -0.033 0.096 -0.066 0.191 -0.09 0.291 c -0.025 0.103 -0.04 0.209 -0.055 0.316 c -0.01 0.07 -0.031 0.136 -0.036 0.207 c -0.003 0.041 0.004 0.082 0.003 0.123 c -0.001 0.04 -0.012 0.078 -0.012 0.119 c 0 0.066 0.016 0.128 0.019 0.193 c 0.007 0.111 0.015 0.22 0.033 0.329 c 0.018 0.108 0.043 0.213 0.071 0.317 c 0.026 0.097 0.054 0.193 0.089 0.288 c 0.04 0.106 0.086 0.207 0.136 0.308 c 0.043 0.087 0.088 0.173 0.139 0.256 c 0.06 0.097 0.126 0.188 0.195 0.278 c 0.036 0.047 0.063 0.1 0.102 0.145 l 5.125 5.957 c 0.641 0.745 1.548 1.128 2.46 1.128 c 0.748 0 1.501 -0.258 2.113 -0.785 c 1.267 -1.091 1.47 -2.942 0.541 -4.288 c 15.539 3.548 27.172 17.471 27.172 34.07 c 0 2.045 -0.178 4.097 -0.53 6.099 c -0.31 1.763 0.868 3.444 2.632 3.754 c 0.19 0.033 0.378 0.05 0.564 0.05 c 1.545 0 2.913 -1.108 3.19 -2.682 c 0.416 -2.371 0.628 -4.8 0.628 -7.221 C 87.591 27.401 73.115 10.566 54.012 6.882 z" style="stroke: none; stroke-width: 1; stroke-dasharray: none; stroke-linecap: butt; stroke-linejoin: miter; stroke-miterlimit: 10; fill: rgb(142,215,112); fill-rule: nonzero; opacity: 1;" transform=" matrix(1 0 0 1 0 0) " stroke-linecap="round" />
	<path d="M 36.132 10.552 C 35.519 8.869 33.658 8 31.977 8.615 C 15.671 14.551 4.715 30.203 4.715 47.563 c 0 4.63 0.78 9.209 2.276 13.543 l -0.268 -0.094 c -1.689 -0.592 -3.54 0.299 -4.131 1.989 c -0.592 1.69 0.299 3.54 1.989 4.131 l 7.206 2.523 c 0.409 0.178 0.851 0.275 1.299 0.275 c 0.552 0 1.111 -0.141 1.623 -0.438 c 0.793 -0.46 1.314 -1.206 1.517 -2.031 l 2.499 -7.139 c 0.592 -1.69 -0.299 -3.54 -1.989 -4.131 c -1.571 -0.55 -3.268 0.191 -3.975 1.656 c -1.018 -3.315 -1.561 -6.78 -1.561 -10.284 c 0 -14.644 9.241 -27.848 22.995 -32.856 C 35.877 14.095 36.745 12.234 36.132 10.552 z" style="stroke: none; stroke-width: 1; stroke-dasharray: none; stroke-linecap: butt; stroke-linejoin: miter; stroke-miterlimit: 10; fill: rgb(122,188,244); fill-rule: nonzero; opacity: 1;" transform=" matrix(1 0 0 1 0 0) " stroke-linecap="round" />
	<path d="M 83.914 73.79 l -1.46 -7.721 c -0.309 -1.63 -1.79 -2.723 -3.404 -2.616 c -0.037 0.002 -0.073 0.006 -0.11 0.009 c -0.092 0.009 -0.182 0.006 -0.274 0.023 l -7.722 1.46 c -1.759 0.333 -2.916 2.029 -2.584 3.788 c 0.307 1.618 1.767 2.709 3.368 2.62 c -6.545 7.009 -15.796 11.162 -25.575 11.162 c -8.202 0 -16.174 -2.897 -22.448 -8.16 c -1.373 -1.151 -3.416 -0.971 -4.567 0.401 c -1.151 1.371 -0.971 3.417 0.401 4.567 C 26.977 85.564 36.429 89 46.153 89 c 12.101 0 23.529 -5.355 31.326 -14.336 l 0.063 0.331 c 0.295 1.556 1.655 2.641 3.182 2.641 c 0.2 0 0.403 -0.019 0.606 -0.057 C 83.09 77.246 84.246 75.55 83.914 73.79 z" style="stroke: none; stroke-width: 1; stroke-dasharray: none; stroke-linecap: butt; stroke-linejoin: miter; stroke-miterlimit: 10; fill: rgb(255,186,87); fill-rule: nonzero; opacity: 1;" transform=" matrix(1 0 0 1 0 0) " stroke-linecap="round" />
	<path d="M 83.774 58.466 c -0.243 0 -0.489 -0.021 -0.737 -0.064 c -1.117 -0.197 -2.09 -0.816 -2.74 -1.743 c -0.651 -0.929 -0.901 -2.054 -0.704 -3.17 c 0.342 -1.946 0.515 -3.939 0.515 -5.926 c 0 -15.068 -10.246 -28.507 -24.613 -32.635 c 0.13 1.329 -0.372 2.687 -1.448 3.612 c -0.77 0.662 -1.751 1.027 -2.765 1.027 c -1.238 0 -2.41 -0.538 -3.218 -1.475 l -5.126 -5.957 c -0.052 -0.061 -0.097 -0.125 -0.14 -0.191 c -0.086 -0.113 -0.172 -0.232 -0.25 -0.359 c -0.067 -0.109 -0.125 -0.22 -0.182 -0.333 c -0.066 -0.135 -0.126 -0.268 -0.178 -0.406 c -0.046 -0.125 -0.083 -0.25 -0.118 -0.377 c -0.037 -0.137 -0.069 -0.275 -0.093 -0.418 c -0.023 -0.141 -0.036 -0.285 -0.044 -0.432 c -0.013 -0.083 -0.021 -0.165 -0.021 -0.25 c 0 -0.047 0.009 -0.158 0.016 -0.204 c -0.009 0.022 -0.009 -0.042 -0.004 -0.109 c 0.007 -0.091 0.021 -0.174 0.039 -0.256 c 0.024 -0.161 0.046 -0.3 0.079 -0.436 c 0.032 -0.128 0.073 -0.253 0.116 -0.378 c 0.048 -0.139 0.098 -0.275 0.16 -0.408 c 0.048 -0.105 0.108 -0.212 0.171 -0.319 c 0.084 -0.145 0.159 -0.267 0.244 -0.383 c 0.075 -0.104 0.161 -0.204 0.249 -0.303 c 0.094 -0.107 0.191 -0.211 0.296 -0.309 c 0.012 -0.019 0.06 -0.068 0.112 -0.113 l 5.955 -5.123 c 0.859 -0.739 1.956 -1.095 3.085 -1.015 c 1.129 0.085 2.158 0.605 2.897 1.464 s 1.1 1.955 1.015 3.084 c -0.046 0.602 -0.214 1.176 -0.492 1.692 c 19.072 4.466 32.743 21.576 32.743 41.311 c 0 2.475 -0.217 4.962 -0.643 7.394 C 87.59 56.99 85.834 58.466 83.774 58.466 z M 53.935 12.493 c 0.074 0 0.148 0.008 0.223 0.025 c 16.195 3.698 27.949 18.436 27.949 35.044 c 0 2.102 -0.184 4.212 -0.545 6.272 c -0.104 0.59 0.027 1.185 0.371 1.675 c 0.345 0.49 0.859 0.817 1.449 0.921 c 1.224 0.216 2.385 -0.617 2.597 -1.821 c 0.406 -2.316 0.612 -4.689 0.612 -7.047 c 0 -19.341 -13.781 -36.037 -32.769 -39.698 c -0.377 -0.073 -0.679 -0.354 -0.777 -0.725 c -0.099 -0.371 0.024 -0.765 0.315 -1.015 l 0.212 -0.182 c 0.937 -0.806 1.043 -2.225 0.237 -3.162 c -0.391 -0.454 -0.936 -0.729 -1.532 -0.774 c -0.592 -0.049 -1.176 0.145 -1.63 0.536 L 44.69 7.668 c 0.014 -0.015 -0.017 0.026 -0.059 0.065 c -0.052 0.048 -0.102 0.105 -0.153 0.162 c -0.045 0.052 -0.09 0.101 -0.13 0.156 c -0.048 0.065 -0.085 0.13 -0.124 0.196 c -0.039 0.067 -0.07 0.118 -0.096 0.173 c -0.035 0.075 -0.059 0.146 -0.083 0.216 C 44.023 8.704 44 8.77 43.982 8.84 c -0.018 0.072 -0.026 0.145 -0.037 0.218 c -0.003 0.022 -0.023 0.131 -0.028 0.153 c 0.001 0.071 0 0.119 -0.002 0.156 c 0.006 0.05 0.011 0.091 0.013 0.133 c 0.004 0.078 0.009 0.152 0.021 0.226 c 0.013 0.077 0.03 0.148 0.05 0.219 c 0.019 0.069 0.037 0.136 0.062 0.202 c 0.027 0.072 0.06 0.143 0.094 0.212 c 0.029 0.058 0.06 0.118 0.095 0.176 c 0.041 0.065 0.086 0.128 0.134 0.19 c 0.017 0.022 0.076 0.107 0.091 0.13 l 5.102 5.931 c 0.774 0.899 2.259 1.014 3.162 0.237 c 0.864 -0.744 1.023 -2.017 0.371 -2.962 c -0.234 -0.339 -0.236 -0.788 -0.005 -1.129 C 53.296 12.654 53.607 12.493 53.935 12.493 z" style="stroke: none; stroke-width: 1; stroke-dasharray: none; stroke-linecap: butt; stroke-linejoin: miter; stroke-miterlimit: 10; fill: rgb(0,0,0); fill-rule: nonzero; opacity: 1;" transform=" matrix(1 0 0 1 0 0) " stroke-linecap="round" />
	<path d="M 13.086 70.93 c -0.582 0 -1.154 -0.121 -1.699 -0.359 L 4.25 68.076 c -1.069 -0.374 -1.929 -1.143 -2.42 -2.164 c -0.491 -1.021 -0.556 -2.172 -0.182 -3.241 s 1.143 -1.93 2.164 -2.422 c 0.545 -0.263 1.128 -0.403 1.716 -0.42 c -1.204 -3.987 -1.813 -8.106 -1.813 -12.267 c 0 -17.778 11.22 -33.808 27.919 -39.887 c 1.063 -0.389 2.214 -0.338 3.241 0.139 c 1.028 0.479 1.808 1.33 2.196 2.396 l 0 0 c 0.388 1.064 0.338 2.216 -0.141 3.244 c -0.479 1.027 -1.329 1.806 -2.394 2.193 C 21.176 20.512 12.2 33.337 12.2 47.563 c 0 2.754 0.345 5.515 1.026 8.231 c 1.086 -0.771 2.508 -1.012 3.842 -0.545 c 1.069 0.373 1.929 1.142 2.42 2.163 c 0.491 1.021 0.556 2.173 0.181 3.242 l -2.499 7.138 c -0.251 1.042 -0.957 1.985 -1.959 2.566 C 14.565 70.732 13.83 70.93 13.086 70.93 z M 5.65 61.828 c -0.332 0 -0.663 0.075 -0.971 0.224 c -0.54 0.26 -0.946 0.714 -1.144 1.279 s -0.164 1.174 0.096 1.714 c 0.26 0.539 0.714 0.945 1.279 1.143 l 7.207 2.522 c 0.825 0.355 1.483 0.269 2.089 -0.083 c 0.528 -0.306 0.9 -0.805 1.048 -1.405 l 2.526 -7.23 c 0.198 -0.565 0.164 -1.174 -0.096 -1.714 c -0.26 -0.539 -0.714 -0.945 -1.279 -1.143 c -1.067 -0.375 -2.249 0.117 -2.745 1.146 c -0.179 0.37 -0.571 0.591 -0.976 0.563 c -0.41 -0.031 -0.759 -0.311 -0.88 -0.703 C 10.74 54.672 10.2 51.113 10.2 47.563 c 0 -15.063 9.505 -28.644 23.653 -33.795 c 0.563 -0.205 1.012 -0.617 1.265 -1.16 c 0.253 -0.542 0.279 -1.151 0.075 -1.714 c 0 0 0 0 0 0 c -0.205 -0.563 -0.617 -1.013 -1.161 -1.266 c -0.542 -0.252 -1.15 -0.279 -1.711 -0.074 C 16.406 15.347 5.715 30.622 5.715 47.563 c 0 4.498 0.748 8.945 2.222 13.217 c 0.125 0.362 0.032 0.764 -0.239 1.034 c -0.272 0.271 -0.674 0.359 -1.036 0.236 l -0.269 -0.094 C 6.151 61.871 5.9 61.828 5.65 61.828 z" style="stroke: none; stroke-width: 1; stroke-dasharray: none; stroke-linecap: butt; stroke-linejoin: miter; stroke-miterlimit: 10; fill: rgb(0,0,0); fill-rule: nonzero; opacity: 1;" transform=" matrix(1 0 0 1 0 0) " stroke-linecap="round" />
	<path d="M 46.152 90 c -9.958 0 -19.637 -3.52 -27.257 -9.909 c -0.868 -0.729 -1.401 -1.751 -1.5 -2.88 c -0.099 -1.129 0.247 -2.229 0.976 -3.097 c 1.502 -1.79 4.183 -2.025 5.976 -0.524 c 6.094 5.111 13.838 7.926 21.805 7.926 c 8.758 0 17.255 -3.465 23.583 -9.564 c -1.192 -0.563 -2.1 -1.668 -2.358 -3.031 c -0.434 -2.3 1.083 -4.523 3.381 -4.958 l 7.722 -1.46 c 0.108 -0.02 0.209 -0.027 0.309 -0.032 l 0.209 -0.017 c 2.131 -0.131 4.042 1.332 4.438 3.43 l 1.46 7.721 l 0 0 c 0.434 2.299 -1.082 4.522 -3.38 4.956 c -1.838 0.339 -3.544 -0.523 -4.423 -1.979 C 69.056 85.13 57.874 90 46.152 90 z M 21.623 74.6 c -0.641 0 -1.277 0.272 -1.72 0.8 c -0.385 0.459 -0.568 1.04 -0.516 1.637 c 0.052 0.597 0.334 1.137 0.792 1.521 C 27.441 84.647 36.664 88 46.152 88 c 11.707 0 22.851 -5.1 30.571 -13.991 c 0.251 -0.291 0.646 -0.411 1.016 -0.31 c 0.37 0.1 0.65 0.402 0.722 0.779 l 0.063 0.331 c 0.228 1.195 1.383 2.02 2.623 1.785 c 1.212 -0.229 2.014 -1.403 1.784 -2.619 l -1.46 -7.721 c -0.209 -1.104 -1.231 -1.884 -2.355 -1.804 l -0.231 0.018 l -7.756 1.459 c -1.215 0.23 -2.017 1.406 -1.787 2.621 c 0.208 1.092 1.184 1.848 2.33 1.807 c 0.399 -0.023 0.787 0.204 0.961 0.574 s 0.104 0.808 -0.175 1.106 c -6.812 7.295 -16.4 11.48 -26.306 11.48 c -8.437 0 -16.637 -2.98 -23.09 -8.393 C 22.643 74.772 22.132 74.6 21.623 74.6 z" style="stroke: none; stroke-width: 1; stroke-dasharray: none; stroke-linecap: butt; stroke-linejoin: miter; stroke-miterlimit: 10; fill: rgb(0,0,0); fill-rule: nonzero; opacity: 1;" transform=" matrix(1 0 0 1 0 0) " stroke-linecap="round" />
</g>
</svg>